<?xml version="1.0" encoding="UTF-8" standalone="no"?>
<svg
   xmlns:dc="http://purl.org/dc/elements/1.1/"
   xmlns:cc="http://creativecommons.org/ns#"
   xmlns:rdf="http://www.w3.org/1999/02/22-rdf-syntax-ns#"
   xmlns:svg="http://www.w3.org/2000/svg"
   xmlns="http://www.w3.org/2000/svg"
   xmlns:sodipodi="http://sodipodi.sourceforge.net/DTD/sodipodi-0.dtd"
   xmlns:inkscape="http://www.inkscape.org/namespaces/inkscape"
   viewBox="0 0 48 48"
   id="svg6095"
   version="1.1"
   inkscape:version="0.48.4 r9939"
   width="100%"
   height="100%"
   sodipodi:docname="icon.svg"
   inkscape:export-filename="/home/philipp/Programme/Blog/ico32.png"
   inkscape:export-xdpi="60"
   inkscape:export-ydpi="60">
  <metadata
     id="metadata6172">
    <rdf:RDF>
      <cc:Work
         rdf:about="">
        <dc:format>image/svg+xml</dc:format>
        <dc:type
           rdf:resource="http://purl.org/dc/dcmitype/StillImage" />
        <dc:title></dc:title>
      </cc:Work>
    </rdf:RDF>
  </metadata>
  <sodipodi:namedview
     pagecolor="#ffffff"
     bordercolor="#666666"
     borderopacity="1"
     objecttolerance="10"
     gridtolerance="10"
     guidetolerance="10"
     inkscape:pageopacity="0"
     inkscape:pageshadow="2"
     inkscape:window-width="1440"
     inkscape:window-height="865"
     id="namedview6170"
     showgrid="false"
     inkscape:zoom="7.0729167"
     inkscape:cx="12.538088"
     inkscape:cy="16.469425"
     inkscape:window-x="1680"
     inkscape:window-y="0"
     inkscape:window-maximized="1"
     inkscape:current-layer="svg6095" />
  <defs
     id="defs6097">
    <linearGradient
       id="linearGradient3764"
       x1="1"
       x2="47"
       gradientUnits="userSpaceOnUse"
       gradientTransform="matrix(0,-1,1,0,-1.5e-6,47.999998)">
      <stop
         stop-color="#d62e2e"
         stop-opacity="1"
         id="stop6100" />
      <stop
         offset="1"
         stop-color="#d93f3f"
         stop-opacity="1"
         id="stop6102" />
    </linearGradient>
    <clipPath
       id="clipPath-556079698">
      <g
         transform="translate(0,-1004.3622)"
         id="g6105">
        <path
           d="m -24 13 c 0 1.105 -0.672 2 -1.5 2 -0.828 0 -1.5 -0.895 -1.5 -2 0 -1.105 0.672 -2 1.5 -2 0.828 0 1.5 0.895 1.5 2 z"
           transform="matrix(15.333333,0,0,11.5,414.99999,878.8622)"
           fill="#1890d0"
           id="path6107" />
      </g>
    </clipPath>
    <clipPath
       id="clipPath-571098090">
      <g
         transform="translate(0,-1004.3622)"
         id="g6110">
        <path
           d="m -24 13 c 0 1.105 -0.672 2 -1.5 2 -0.828 0 -1.5 -0.895 -1.5 -2 0 -1.105 0.672 -2 1.5 -2 0.828 0 1.5 0.895 1.5 2 z"
           transform="matrix(15.333333,0,0,11.5,414.99999,878.8622)"
           fill="#1890d0"
           id="path6112" />
      </g>
    </clipPath>
  </defs>
  <g
     id="g6128" />
  <g
     id="g6166">
    <path
       d="m 40.03 7.531 c 3.712 4.084 5.969 9.514 5.969 15.469 0 12.703 -10.297 23 -23 23 c -5.954 0 -11.384 -2.256 -15.469 -5.969 4.178 4.291 10.01 6.969 16.469 6.969 c 12.703 0 23 -10.298 23 -23 0 -6.462 -2.677 -12.291 -6.969 -16.469 z"
       opacity="0.1"
       id="path6168" />
  </g>
  <path
     transform="matrix(0.96687264,0,0,0.96500247,1.5,1.4999981)"
     d="m 48.093201,24.093204 a 24.0466,24.093203 0 1 1 -48.093201,0 24.0466,24.093203 0 1 1 48.093201,0 z"
     sodipodi:ry="24.093203"
     sodipodi:rx="24.0466"
     sodipodi:cy="24.093204"
     sodipodi:cx="24.0466"
     id="path3786"
     style="fill:#607d8b;fill-opacity:1;stroke:none"
     sodipodi:type="arc" />
  <path
     sodipodi:type="arc"
     style="fill:#eceff1;fill-opacity:1;stroke:#e51c23;stroke-opacity:1"
     id="path3016"
     sodipodi:cx="24.0466"
     sodipodi:cy="24.093204"
     sodipodi:rx="24.0466"
     sodipodi:ry="24.093203"
     d="m 48.093201,24.093204 a 24.0466,24.093203 0 1 1 -48.093201,0 24.0466,24.093203 0 1 1 48.093201,0 z"
     transform="matrix(0.93701177,0,0,0.93519935,1.4680525,1.4680506)" />
  <text
     xml:space="preserve"
     style="font-size:24px;font-style:normal;font-variant:normal;font-weight:normal;font-stretch:normal;line-height:125%;letter-spacing:0px;word-spacing:0px;fill:#e51c23;fill-opacity:1;stroke:none;font-family:Sawasdee;-inkscape-font-specification:Sawasdee"
     x="4.3172483"
     y="30.25626"
     id="text3788"
     sodipodi:linespacing="125%"><tspan
       sodipodi:role="line"
       id="tspan3790"
       x="4.3172483"
       y="30.25626">ph.t</tspan></text>
</svg>
